<svg width="524" height="253" viewBox="27 72 524 253" fill="none" xmlns="http://www.w3.org/2000/svg">
  <style>
    .ink {
      fill: #f2f1eb;
      stroke: #f2f1eb;
      stroke-width: 12;
      stroke-linejoin: round;
      paint-order: stroke fill;
    }
  </style>
  <defs>
    <path id="ling-L" data-glyph-style="concept-b-linked" d="M18.4336-182.785H35.8398V-27.6484C35.8398-20.5781 41.5703-14.8477 48.6406-14.8477H138.238V0H46.082C30.8086 0 18.4336-12.375 18.4336-27.6484V-182.785Z"/>
    <path id="ling-i" d="M15.6172-132.098V0H31.7422V-132.098H15.6172Z"/>
    <path id="ling-n" d="M15.1055-132.098V0H31.2305V-77.0547C31.4023-83.543 32.4688-89.5586 34.4336-95.1055C36.3945-100.652 39.125-105.43 42.625-109.441C46.1211-113.449 50.3906-116.609 55.4258-118.91C60.457-121.215 66.2188-122.367 72.7031-122.367C79.1875-122.367 84.6094-121.344 88.9609-119.297C93.3125-117.246 96.7695-114.434 99.3281-110.848C101.887-107.266 103.68-103.039 104.703-98.1758C105.727-93.3125 106.238-88.0625 106.238-82.4336V0H122.367V-84.9922C122.367-92.8438 121.602-99.9258 120.062-106.238C118.527-112.555 115.883-117.887 112.129-122.238C108.375-126.594 103.383-129.961 97.1523-132.352C90.9219-134.742 83.1992-135.938 73.9844-135.938C64.5977-135.938 55.9805-133.504 48.1289-128.641C40.2773-123.777 34.8164-117.332 31.7422-109.312H31.2305V-132.098H15.1055Z"/>
    <path id="ling-g" d="M126.977-10.7539V-132.098H110.848V-109.312H110.336C108.801-112.895 106.625-116.309 103.809-119.551C100.992-122.793 97.793-125.652 94.207-128.129C90.625-130.602 86.6562-132.523 82.3047-133.887C77.9531-135.254 73.3008-135.938 68.3516-135.938C58.793-135.938 50.3047-134.188 42.8789-130.688C35.457-127.188 29.2266-122.41 24.1914-116.352C19.1562-110.293 15.3164-103.211 12.6719-95.1055C10.0273-86.9961 8.7031-78.4219 8.7031-69.375C8.7031-59.9883 9.8125-51.1562 12.0312-42.8789C14.25-34.6016 17.793-27.3906 22.6562-21.2461C27.5195-15.1055 33.707-10.2812 41.2148-6.7852C48.7266-3.2852 57.7695-1.5352 68.3516-1.5352C78.0781-1.5352 86.5703-4.0117 93.8242-8.9609C101.078-13.9102 106.582-20.4805 110.336-28.6719H110.848V-10.7539C110.848 5.2891 107.52 17.5781 100.863 26.1133C94.207 34.6445 83.3711 38.9102 68.3516 38.9102C63.9141 38.9102 59.5625 38.4414 55.2969 37.5039C51.0312 36.5664 47.1484 35.0703 43.6484 33.0234C40.1484 30.9766 37.1641 28.2891 34.6875 24.9609C32.2148 21.6328 30.5508 17.4922 29.6953 12.543H13.5664C14.0781 19.543 16 25.5586 19.3281 30.5938C22.6562 35.625 26.8359 39.7656 31.8711 43.0078C36.9062 46.25 42.582 48.6406 48.8945 50.1758C55.2109 51.7109 61.6953 52.4805 68.3516 52.4805C79.1055 52.4805 88.1914 51.0312 95.6172 48.1289C103.039 45.2266 109.055 41.0469 113.664 35.5859C118.273 30.1211 121.645 23.4648 123.777 15.6172C125.91 7.7656 126.977-1.0234 126.977-10.7539ZM68.3516-15.1055C60.8438-15.1055 54.3555-16.5977 48.8945-19.5859C43.4336-22.5703 38.9102-26.4961 35.3281-31.3594C31.7422-36.2227 29.0977-41.8125 27.3906-48.1289C25.6836-54.4414 24.832-60.9297 24.832-67.5859C24.832-74.4102 25.6445-81.1094 27.2656-87.6797C28.8867-94.25 31.4883-100.098 35.0703-105.215C38.6562-110.336 43.1797-114.477 48.6406-117.633C54.1016-120.789 60.6719-122.367 68.3516-122.367C76.0312-122.367 82.5586-120.746 87.9375-117.504C93.3125-114.262 97.707-109.996 101.121-104.703C104.535-99.4141 107.008-93.5234 108.543-87.0391C110.078-80.5547 110.848-74.0703 110.848-67.5859C110.848-60.9297 109.953-54.4414 108.16-48.1289C106.367-41.8125 103.68-36.2227 100.098-31.3594C96.5117-26.4961 92.0742-22.5703 86.7852-19.5859C81.4922-16.5977 75.3477-15.1055 68.3516-15.1055Z"/>
  </defs>
  <g class="ink" data-brand="ling-wordmark" data-glyph-style="concept-b-primary" transform="scale(1.04 1)">
    <use href="#ling-L" transform="translate(16 263.547)"/>
    <use href="#ling-i" transform="translate(173.469 263.547)"/>
    <use href="#ling-n" transform="translate(232.828 263.547)"/>
    <use href="#ling-g" transform="translate(388.297 263.547)"/>
  </g>
  <circle class="ink" cx="205.034" cy="93.689" r="8.063"/>
</svg>
