<svg width="512" height="512" viewBox="0 0 512 512" fill="none" xmlns="http://www.w3.org/2000/svg">
  <rect width="512" height="512" fill="#F7F6F2"/>
  <g fill="#181814" transform="translate(64 64) scale(6)" data-brand="ling-four-stroke">
    <path d="M8 29V18C8 12.477 12.477 8 18 8h11v12h-9v9H8Z"/>
    <path d="M35 8h11c5.523 0 10 4.477 10 10v11H44v-9h-9V8Z"/>
    <path d="M56 35v11c0 5.523-4.477 10-10 10H35V44h9v-9h12Z"/>
    <path d="M29 56H18C12.477 56 8 51.523 8 46V35h12v9h9v12Z"/>
  </g>
</svg>
